<svg width="12" height="12" viewBox="0 0 12 12" fill="none" xmlns="http://www.w3.org/2000/svg">
<circle cx="6" cy="6" r="6" fill="#000"/>
<path d="M5.22094 7.092C5.17294 7.092 5.13094 7.077 5.09494 7.047C5.05894 7.011 5.04094 6.969 5.04094 6.921V6.714C5.08294 6.462 5.17594 6.237 5.31994 6.039C5.46994 5.841 5.67394 5.616 5.93194 5.364C6.12394 5.172 6.26794 5.016 6.36394 4.896C6.45994 4.77 6.51094 4.644 6.51694 4.518C6.53494 4.332 6.47194 4.185 6.32794 4.077C6.18994 3.963 6.02194 3.906 5.82394 3.906C5.35594 3.906 5.06794 4.131 4.95994 4.581C4.91194 4.725 4.81894 4.797 4.68094 4.797H3.58294C3.51694 4.797 3.46294 4.776 3.42094 4.734C3.38494 4.686 3.36694 4.626 3.36694 4.554C3.37894 4.224 3.48394 3.912 3.68194 3.618C3.87994 3.318 4.17094 3.075 4.55494 2.889C4.93894 2.703 5.39794 2.61 5.93194 2.61C6.47794 2.61 6.92194 2.697 7.26394 2.871C7.60594 3.039 7.84894 3.249 7.99294 3.501C8.14294 3.747 8.21794 3.999 8.21794 4.257C8.21794 4.551 8.14894 4.809 8.01094 5.031C7.87894 5.253 7.68094 5.508 7.41694 5.796C7.25494 5.97 7.12594 6.117 7.02994 6.237C6.93994 6.357 6.87094 6.483 6.82294 6.615C6.80494 6.669 6.78394 6.75 6.75994 6.858C6.71194 6.942 6.66994 7.002 6.63394 7.038C6.59794 7.074 6.54694 7.092 6.48094 7.092H5.22094ZM5.23894 9C5.17294 9 5.11894 8.979 5.07694 8.937C5.03494 8.895 5.01394 8.841 5.01394 8.775V7.749C5.01394 7.683 5.03494 7.629 5.07694 7.587C5.11894 7.545 5.17294 7.524 5.23894 7.524H6.39094C6.45694 7.524 6.51094 7.545 6.55294 7.587C6.60094 7.629 6.62494 7.683 6.62494 7.749V8.775C6.62494 8.841 6.60094 8.895 6.55294 8.937C6.51094 8.979 6.45694 9 6.39094 9H5.23894Z" fill="white"/>
</svg>
